<?xml version="1.0" encoding="UTF-8"?>
<svg id="Capa_2" data-name="Capa 2" xmlns="http://www.w3.org/2000/svg" viewBox="0 0 455 455">
  <defs>
    <style>
      .cls-1 {
        fill: #111;
        stroke: #111;
        stroke-miterlimit: 10;
        stroke-width: 5px;
      }
    </style>
  </defs>
  <g id="Layer_5" data-name="Layer 5">
    <g>
      <path class="cls-1" d="M430.73,321.85h-36.29v-43.55h-43.55v-31.07c57.67-10.33,101.61-60.75,101.61-121.35,0-68.04-55.35-123.39-123.39-123.39-54.62,0-102.59,36.26-118.12,87.68-13.96-9.51-30.77-15.1-48.82-15.1-43.24,0-79.13,30.94-85.91,72.94-25.16,3.01-44.73,24.49-44.73,50.44,0,28.01,22.79,50.81,50.81,50.81h21.77v29.03H60.56v43.55H24.27c-12,0-21.77,9.77-21.77,21.77v58.06c0,12,9.77,21.77,21.77,21.77h14.52v14.52h-14.52v14.52H111.36v-14.52h-14.51v-14.52h14.52c12,0,21.77-9.77,21.77-21.77v-36.29h29.03v36.29c0,12,9.77,21.77,21.77,21.77h14.52v14.52h-14.52v14.52h87.09v-14.52h-14.51v-14.52h14.52c12,0,21.77-9.77,21.77-21.77v-36.29h29.03v36.29c0,12,9.77,21.77,21.77,21.77h14.52v14.52h-14.52v14.52h87.09v-14.52h-14.51v-14.52h14.52c12,0,21.77-9.77,21.77-21.77v-58.06c0-12-9.77-21.77-21.77-21.77h0Zm7.26,21.77v36.29h-101.61v-36.29c0-4.01,3.26-7.26,7.26-7.26h87.1c4,0,7.26,3.25,7.26,7.26Zm-173.94-210.48c.15,5.15,.46,10.24,.94,15.28-2.76-.46-5.57-.76-8.46-.76s-5.65,.24-8.45,.73c-.83-5.25-2.15-10.35-3.88-15.24h19.84ZM329.11,17.02c16.2,0,30.88,17.33,40.25,43.55h-80.51c9.38-26.22,24.05-43.55,40.25-43.55h0Zm44.7,58.06c3.35,13.22,5.41,28,5.92,43.55h-101.26c.51-15.55,2.57-30.33,5.92-43.55h89.41Zm63.8,43.55h-43.37c-.46-15.52-2.34-30.19-5.46-43.55h36.54c6.97,13.15,11.25,27.91,12.29,43.55h0Zm0,14.52c-1.04,15.64-5.31,30.4-12.29,43.55h-36.54c3.12-13.35,5-28.02,5.46-43.55h43.37Zm-157.49,20.37c-.84-6.66-1.34-13.46-1.56-20.37h101.18c-.51,15.55-2.57,30.33-5.92,43.55h-71.46c-4.73-9.91-12.55-18.07-22.25-23.18h0Zm26.64,37.7h62.61c-9.38,26.22-24.05,43.55-40.25,43.55-11.2,0-22.14-1.68-32.65-4.99,6.79-8.64,10.87-19.5,10.87-31.3,0-2.47-.24-4.88-.58-7.26h0Zm59.36,36.94c7.53-9.63,13.85-22.25,18.62-36.94h31.27c-12.61,16.72-29.87,29.66-49.89,36.94Zm49.89-167.58h-31.27c-4.78-14.68-11.09-27.3-18.62-36.94,20.02,7.27,37.28,20.21,49.89,36.94Zm-123.81-37.06c-7.57,9.65-13.91,22.31-18.71,37.06h-31.38c12.72-16.85,30.13-29.82,50.1-37.06Zm-59.3,51.58h36.54c-3.12,13.35-5,28.02-5.46,43.55h-26.48c-3.89-6.73-8.66-12.86-14.13-18.28,2.15-8.93,5.36-17.4,9.54-25.27h0ZM46.05,198.47c0-20,16.27-36.28,36.23-36.28h.01l7.01,.41,.63-7c3.39-37.63,34.45-66,72.25-66s70.15,30.03,72.36,68.36l.56,9.7,9.15-3.29c4.04-1.45,8.17-2.19,12.3-2.19,20.01,0,36.29,16.28,36.29,36.29s-16.28,36.29-36.29,36.29H82.34c-20.01,0-36.29-16.28-36.29-36.29h0Zm-21.77,137.9H111.37c4,0,7.26,3.25,7.26,7.26v36.29H17.02v-36.29c0-4.01,3.26-7.26,7.26-7.26Zm58.06,101.61h-29.03v-14.52h29.03v14.52Zm29.03-29.03H24.27c-4,0-7.26-3.25-7.26-7.26v-7.26H118.63v7.26c0,4.01-3.26,7.26-7.26,7.26Zm21.77-58.06v-7.26c0-12-9.77-21.77-21.77-21.77h-36.29v-29.03h43.55v-43.55h101.61v72.58h-36.29c-12,0-21.77,9.77-21.77,21.77v7.26h-29.03Zm145.16,29.03h-101.61v-36.29c0-4.01,3.26-7.26,7.26-7.26h87.1c4,0,7.26,3.25,7.26,7.26v36.29Zm-36.29,58.06h-29.03v-14.52h29.03v14.52Zm29.03-29.03h-87.1c-4,0-7.26-3.25-7.26-7.26v-7.26h101.61v7.26c0,4.01-3.26,7.26-7.26,7.26Zm21.77-58.06v-7.26c0-12-9.77-21.77-21.77-21.77h-36.29v-72.58h21.77c10.34,0,19.97-3.12,28-8.46,14.21,5.52,29.16,8.46,44.58,8.46,2.45,0,4.84-.22,7.26-.37v43.92h43.55v29.03h-36.29c-12,0-21.77,9.77-21.77,21.77v7.26h-29.03Zm108.87,87.1h-29.03v-14.52h29.03v14.52Zm29.03-29.03h-87.1c-4,0-7.26-3.25-7.26-7.26v-7.26h101.61v7.26c0,4.01-3.26,7.26-7.26,7.26Z"/>
      <path class="cls-1" d="M111.37,176.69c-12,0-21.77,9.77-21.77,21.77s9.77,21.77,21.77,21.77,21.77-9.77,21.77-21.77-9.77-21.77-21.77-21.77Zm0,29.03c-4,0-7.26-3.25-7.26-7.26s3.26-7.26,7.26-7.26,7.26,3.25,7.26,7.26-3.26,7.26-7.26,7.26Z"/>
      <path class="cls-1" d="M169.44,176.69c-12,0-21.77,9.77-21.77,21.77s9.77,21.77,21.77,21.77,21.77-9.77,21.77-21.77-9.77-21.77-21.77-21.77Zm0,29.03c-4,0-7.26-3.25-7.26-7.26s3.26-7.26,7.26-7.26,7.26,3.25,7.26,7.26-3.26,7.26-7.26,7.26Z"/>
      <path class="cls-1" d="M227.5,176.69c-12,0-21.77,9.77-21.77,21.77s9.77,21.77,21.77,21.77,21.77-9.77,21.77-21.77-9.77-21.77-21.77-21.77Zm0,29.03c-4,0-7.26-3.25-7.26-7.26s3.26-7.26,7.26-7.26,7.26,3.25,7.26,7.26-3.26,7.26-7.26,7.26Z"/>
      <path class="cls-1" d="M162.18,104.11v14.52c19.13,0,36.3,12.79,41.74,31.1l13.91-4.14c-7.27-24.42-30.15-41.48-55.65-41.48Z"/>
    </g>
  </g>
</svg>