<?xml version="1.0" encoding="UTF-8"?>
<svg id="Capa_2" data-name="Capa 2" xmlns="http://www.w3.org/2000/svg" viewBox="0 0 498.08 475">
  <defs>
    <style>
      .cls-1 {
        fill: none;
        stroke: #111;
        stroke-linecap: round;
        stroke-linejoin: round;
        stroke-width: 25px;
      }
    </style>
  </defs>
  <g id="Layer_5" data-name="Layer 5">
    <g id="g4144">
      <g id="g4150">
        <path id="path4152" class="cls-1" d="M12.5,140.7H450.5"/>
      </g>
      <g id="g4154">
        <path id="path4156" class="cls-1" d="M92.8,99.78c12.59,0,22.87-10.24,22.87-22.83s-10.27-22.83-22.87-22.83-22.84,10.24-22.84,22.83,10.28,22.83,22.84,22.83Z"/>
      </g>
      <g id="g4158">
        <path id="path4160" class="cls-1" d="M291.3,54.12h86.02c12.56,0,22.84,10.27,22.84,22.83s-10.28,22.83-22.84,22.83h-86.02c-12.56,0-22.84-10.27-22.84-22.83s10.28-22.83,22.84-22.83Z"/>
      </g>
      <g id="g4162">
        <path id="path4164" class="cls-1" d="M177.12,99.78c12.59,0,22.87-10.24,22.87-22.83s-10.27-22.83-22.87-22.83-22.84,10.24-22.84,22.83,10.28,22.83,22.84,22.83Z"/>
      </g>
      <g id="g4166">
        <path id="path4168" class="cls-1" d="M159.05,214.66l-19.24,80.53"/>
      </g>
      <g id="g4170">
        <path id="path4172" class="cls-1" d="M203.37,287.91l27.23-30.57c1.2-1.33,1.2-3.51,0-4.85l-27.23-30.57"/>
      </g>
      <g id="g4174">
        <path id="path4176" class="cls-1" d="M95.49,287.91l-27.23-30.57c-1.2-1.33-1.2-3.51,0-4.85l27.23-30.57"/>
      </g>
      <g id="g4178">
        <path id="path4180" class="cls-1" d="M391.85,257.15c10.52,2.34,20.36,6.48,29.22,12.04l7.88-7.85c4.66-4.69,12.32-4.69,17.01,0l12.4,12.4c4.69,4.69,4.69,12.34,0,17l-7.85,7.87c5.53,8.77,9.62,18.52,11.99,28.93h11.04c6.62,0,12.05,5.42,12.05,12.01v17.57c0,6.59-5.42,12.01-12.05,12.01h-11.09c-2.37,10.35-6.46,20.05-11.94,28.77l7.85,7.85c4.69,4.69,4.69,12.34,0,17l-12.4,12.42c-4.69,4.69-12.35,4.69-17.01,0l-7.88-7.85c-8.75,5.5-18.48,9.59-28.89,11.96v11.17c0,6.62-5.42,12.04-12.02,12.04h-17.58c-6.6,0-12.02-5.42-12.02-12.04v-11.2c-10.36-2.34-20.09-6.46-28.84-11.93l-7.85,7.85c-4.69,4.69-12.35,4.69-17.01,0l-12.43-12.42c-4.66-4.66-4.66-12.31,0-17l7.88-7.85c-5.5-8.72-9.59-18.42-11.96-28.77h-11.15c-6.62,0-12.02-5.42-12.02-12.01v-17.57c0-6.59,5.4-12.01,12.02-12.01h11.12c2.34-10.3,6.38-19.94,11.8-28.63l-7.9-7.93c-4.69-4.66-4.69-12.31,0-17l12.4-12.4c4.69-4.69,12.35-4.69,17.01,0l7.82,7.79c8.72-5.53,18.42-9.64,28.78-12.07v-11.09c0-6.62,5.4-12.04,12.02-12.04h17.55c6.62,0,12.05,5.42,12.05,12.04v10.92Z"/>
      </g>
      <g id="g4182">
        <path id="path4184" class="cls-1" d="M371.38,298.81c27.36,0,49.55,22.17,49.55,49.55s-22.19,49.52-49.55,49.52-49.58-22.17-49.58-49.52,22.19-49.55,49.58-49.55Z"/>
      </g>
      <g id="g4186">
        <path id="path4188" class="cls-1" d="M105.22,369.14H48.31c-19.68,0-35.81-19.26-35.81-42.77V55.27C12.5,31.73,28.61,12.5,48.31,12.5H414.69c19.71,0,35.81,19.26,35.81,42.77v210.63m-181.3,103.24h-78.03"/>
      </g>
      <g id="g4190">
        <path id="path4192" class="cls-1" d="M148.29,369.14h.19"/>
      </g>
    </g>
  </g>
</svg>