<?xml version="1.0" encoding="UTF-8"?>
<svg id="Capa_2" data-name="Capa 2" xmlns="http://www.w3.org/2000/svg" viewBox="0 0 418.09 459">
  <defs>
    <style>
      .cls-1 {
        fill: #111;
        stroke: #111;
        stroke-miterlimit: 10;
        stroke-width: 9px;
      }
    </style>
  </defs>
  <g id="Capa_1-2" data-name="Capa 1">
    <path class="cls-1" d="M412.4,74.13C402.92,39.03,332.4,4.5,209.05,4.5S15.16,39.03,5.69,74.13c-.69,1.2-1.19,2.52-1.19,4.01V380.86c0,1.33,.35,2.58,.96,3.69,9.66,40.05,96.11,69.95,203.59,69.95s193.54-29.77,203.52-69.68c.65-1.17,1.02-2.52,1.02-3.96V78.14c0-1.49-.51-2.81-1.19-4.01Zm-15.82,208.43c-.23,.99-.55,1.97-.95,2.97-.33,.81-.73,1.62-1.17,2.43-.55,1.01-1.16,2.01-1.89,3.02-.54,.76-1.15,1.51-1.79,2.27-.91,1.07-1.87,2.14-2.97,3.21-.66,.65-1.39,1.28-2.13,1.93-1.34,1.17-2.74,2.33-4.3,3.49-.67,.5-1.39,.98-2.1,1.47-1.85,1.28-3.78,2.54-5.9,3.79-.56,.34-1.15,.65-1.73,.98-2.44,1.37-4.98,2.74-7.73,4.07-.35,.17-.72,.34-1.08,.5-3.07,1.45-6.28,2.87-9.7,4.25-.1,.04-.2,.07-.29,.11-18.58,7.42-42.35,13.66-70.04,17.75-.14,.02-.28,.03-.42,.06-5.38,.79-10.91,1.5-16.58,2.12-.92,.1-1.9,.16-2.83,.26-4.95,.52-9.96,.99-15.11,1.37-2.36,.17-4.83,.25-7.22,.4-3.88,.23-7.72,.48-11.69,.62-6.5,.2-13.12,.34-19.89,.34s-13.39-.13-19.9-.36c-3.98-.14-7.81-.4-11.69-.62-2.4-.14-4.87-.23-7.22-.4-5.15-.38-10.16-.85-15.11-1.37-.93-.1-1.91-.16-2.83-.26-5.67-.62-11.19-1.33-16.58-2.12-.14-.02-.28-.03-.42-.06-27.7-4.09-51.46-10.33-70.04-17.75-.1-.03-.2-.07-.29-.11-3.43-1.37-6.64-2.8-9.7-4.25-.35-.17-.73-.34-1.08-.5-2.75-1.33-5.29-2.68-7.73-4.07-.57-.33-1.18-.65-1.73-.98-2.12-1.24-4.05-2.51-5.9-3.79-.7-.49-1.43-.97-2.1-1.47-1.56-1.15-2.96-2.32-4.3-3.49-.73-.64-1.46-1.28-2.13-1.93-1.1-1.06-2.06-2.13-2.97-3.21-.64-.75-1.25-1.51-1.79-2.27-.72-1.01-1.33-2.01-1.89-3.02-.44-.81-.83-1.62-1.17-2.43-.4-.99-.72-1.98-.95-2.97-.3-1.3-.64-2.63-.64-3.94,0-.92,.11-1.85,.25-2.77,.2-1.24,.09-2.47-.25-3.64v-60.74c.23,.21,.52,.42,.75,.63,1.78,1.57,3.6,3.13,5.65,4.64,30.82,23.31,92.45,41.42,181.78,41.42s150.43-17.97,181.38-41.14c2.47-1.8,4.7-3.66,6.79-5.55h0s0,60.73,0,60.73c-.34,1.17-.46,2.41-.25,3.64,.16,.92,.25,1.84,.25,2.77,0,1.32-.34,2.64-.65,3.97Zm.65-169.3v60.74c-.34,1.17-.46,2.41-.25,3.64,.16,.92,.25,1.84,.25,2.77,0,1.32-.34,2.64-.65,3.97-.23,.99-.55,1.97-.95,2.97-.33,.81-.73,1.62-1.17,2.43-.55,1.01-1.16,2.01-1.89,3.02-.54,.76-1.15,1.51-1.79,2.27-.91,1.07-1.87,2.14-2.97,3.21-.66,.65-1.39,1.28-2.13,1.93-1.34,1.17-2.74,2.33-4.3,3.49-.67,.5-1.39,.98-2.1,1.47-1.85,1.28-3.78,2.54-5.9,3.79-.56,.34-1.15,.65-1.73,.98-2.44,1.37-4.98,2.74-7.73,4.07-.35,.17-.72,.34-1.08,.5-3.07,1.45-6.28,2.87-9.7,4.25-.1,.04-.2,.07-.29,.11-18.58,7.42-42.35,13.66-70.04,17.75-.14,.02-.28,.03-.42,.06-5.38,.79-10.91,1.5-16.58,2.12-.92,.1-1.9,.16-2.83,.26-4.95,.52-9.96,.99-15.11,1.37-2.36,.17-4.83,.25-7.22,.4-3.88,.23-7.72,.48-11.69,.62-6.5,.2-13.12,.34-19.89,.34s-13.39-.13-19.9-.36c-3.98-.14-7.81-.4-11.69-.62-2.4-.14-4.87-.23-7.22-.4-5.15-.38-10.16-.85-15.11-1.37-.93-.1-1.91-.16-2.83-.26-5.67-.62-11.19-1.33-16.58-2.12-.14-.02-.28-.03-.42-.06-27.7-4.09-51.46-10.33-70.04-17.75-.1-.03-.2-.07-.29-.11-3.43-1.37-6.64-2.8-9.7-4.25-.35-.17-.73-.34-1.08-.5-2.75-1.33-5.29-2.68-7.73-4.07-.57-.33-1.18-.65-1.73-.98-2.12-1.24-4.05-2.51-5.9-3.79-.7-.49-1.43-.97-2.1-1.47-1.56-1.15-2.96-2.32-4.3-3.49-.73-.64-1.46-1.28-2.13-1.93-1.1-1.06-2.06-2.13-2.97-3.21-.64-.75-1.25-1.51-1.79-2.27-.72-1.01-1.33-2.01-1.89-3.02-.44-.81-.83-1.62-1.17-2.43-.4-.99-.72-1.98-.95-2.97-.3-1.3-.64-2.63-.64-3.94,0-.92,.11-1.85,.25-2.77,.2-1.24,.09-2.47-.25-3.64v-60.74c.98,.89,2.1,1.77,3.17,2.65,.59,.49,1.14,.98,1.76,1.47,2.45,1.93,5.11,3.84,7.98,5.69,.6,.38,1.27,.76,1.89,1.15,2.41,1.5,4.95,2.96,7.63,4.4,.99,.53,1.98,1.06,3,1.58,2.99,1.52,6.12,3,9.42,4.43,.54,.24,1.03,.48,1.58,.71,3.84,1.63,7.91,3.18,12.15,4.69,1.17,.42,2.4,.81,3.6,1.22,3.37,1.14,6.86,2.23,10.46,3.28,1.3,.38,2.58,.77,3.91,1.13,4.79,1.33,9.73,2.59,14.92,3.75,.71,.16,1.48,.29,2.2,.45,4.57,1,9.32,1.92,14.2,2.79,1.65,.29,3.33,.57,5.02,.85,4.64,.76,9.42,1.46,14.32,2.09,1.26,.16,2.46,.35,3.74,.51,6.09,.74,12.39,1.37,18.86,1.91,1.6,.13,3.26,.23,4.88,.34,5.18,.38,10.47,.69,15.89,.93,1.97,.09,3.94,.18,5.95,.25,7.05,.24,14.24,.41,21.68,.41s14.63-.17,21.68-.41c2-.07,3.97-.16,5.95-.25,5.42-.25,10.71-.56,15.89-.93,1.62-.12,3.27-.21,4.88-.34,6.47-.53,12.77-1.17,18.86-1.91,1.28-.16,2.48-.34,3.74-.51,4.9-.64,9.67-1.33,14.32-2.09,1.69-.28,3.36-.56,5.02-.85,4.88-.87,9.62-1.79,14.2-2.79,.72-.16,1.49-.29,2.2-.45,5.19-1.16,10.13-2.43,14.92-3.75,1.33-.37,2.61-.75,3.91-1.13,3.61-1.06,7.09-2.14,10.46-3.28,1.2-.41,2.43-.8,3.6-1.22,4.24-1.51,8.32-3.06,12.15-4.69,.55-.23,1.04-.47,1.58-.71,3.3-1.44,6.43-2.91,9.42-4.43,1.02-.52,2.02-1.05,3-1.58,2.68-1.43,5.22-2.9,7.63-4.4,.62-.38,1.29-.76,1.89-1.15,2.87-1.86,5.52-3.76,7.98-5.69,.61-.49,1.16-.98,1.76-1.47,1.06-.88,2.18-1.76,3.17-2.65ZM209.05,20.86c110.9,0,188.18,32.33,188.18,61.36s-77.28,61.36-188.18,61.36S20.86,111.26,20.86,82.23,98.14,20.86,209.05,20.86Zm188.18,357.57c-.11,.36-.2,.73-.26,1.1-4.64,28.3-81.26,58.6-187.92,58.6s-183.28-30.3-187.92-58.6c-.07-.37-.16-.73-.26-1.07v-68.84c.23,.21,.52,.42,.75,.63,1.78,1.57,3.6,3.13,5.65,4.64,30.82,23.31,92.45,41.42,181.78,41.42s150.43-17.97,181.38-41.14c2.47-1.8,4.7-3.66,6.79-5.55h0s0,68.8,0,68.8Z"/>
  </g>
</svg>