<?xml version="1.0" encoding="UTF-8"?>
<svg id="Capa_2" data-name="Capa 2" xmlns="http://www.w3.org/2000/svg" viewBox="0 0 452 452">
  <defs>
    <style>
      .cls-1 {
        fill: #111;
        stroke: #111;
        stroke-miterlimit: 10;
        stroke-width: 2px;
      }
    </style>
  </defs>
  <g id="Capa_1-2" data-name="Capa 1">
    <g id="_2-Magnifying_Glass" data-name="2-Magnifying Glass">
      <path class="cls-1" d="M447.17,428.66l-102.25-102.25c31.38-35.79,48.7-81.07,48.7-129.11,0-52.44-20.42-101.73-57.5-138.81S249.75,1,197.31,1,95.58,21.42,58.5,58.5C21.42,95.58,1,144.87,1,197.31s20.42,101.73,57.5,138.81c37.08,37.08,86.37,57.5,138.81,57.5,48.04,0,93.32-17.32,129.11-48.7l102.25,102.25c2.56,2.56,5.9,3.83,9.25,3.83s6.7-1.28,9.25-3.83c5.11-5.11,5.11-13.39,0-18.51ZM77.01,317.61c-32.13-32.14-49.83-74.86-49.83-120.3s17.7-88.17,49.83-120.3c32.14-32.13,74.86-49.83,120.3-49.83s88.17,17.7,120.3,49.83c32.13,32.14,49.83,74.86,49.83,120.3s-17.7,88.17-49.83,120.3c-32.14,32.13-74.86,49.83-120.3,49.83s-88.17-17.7-120.3-49.83Z"/>
    </g>
  </g>
</svg>