<?xml version="1.0" encoding="UTF-8"?>
<svg id="Capa_2" data-name="Capa 2" xmlns="http://www.w3.org/2000/svg" viewBox="0 0 455 455">
  <defs>
    <style>
      .cls-1 {
        fill: #111;
        stroke: #111;
        stroke-miterlimit: 10;
        stroke-width: 5px;
      }
    </style>
  </defs>
  <g id="Capa_1-2" data-name="Capa 1">
    <g>
      <path class="cls-1" d="M227.5,2.5C103.38,2.5,2.5,103.38,2.5,227.5s100.88,225,225,225,225-100.88,225-225S351.62,2.5,227.5,2.5Zm0,427.29c-111.44,0-202.29-90.85-202.29-202.29S116.06,25.21,227.5,25.21s202.29,90.85,202.29,202.29-90.85,202.29-202.29,202.29Z"/>
      <path class="cls-1" d="M243.35,226.44l66.02-66.02c4.23-4.23,4.23-11.62,0-15.85s-11.62-4.23-15.85,0l-66.02,66.02-66.02-66.02c-4.23-4.23-11.62-4.23-15.85,0s-4.23,11.62,0,15.85l66.02,66.02-66.02,65.49c-4.23,4.23-4.23,11.62,0,15.85,2.11,2.11,5.28,3.17,7.92,3.17s5.81-1.06,7.92-3.17l66.02-66.02,66.02,66.02c2.11,2.11,5.28,3.17,7.92,3.17s5.81-1.06,7.92-3.17c4.23-4.23,4.23-11.62,0-15.85l-66.02-65.49Z"/>
    </g>
  </g>
</svg>