<?xml version="1.0" encoding="UTF-8"?>
<svg id="Capa_2" data-name="Capa 2" xmlns="http://www.w3.org/2000/svg" viewBox="0 0 341.25 454">
  <defs>
    <style>
      .cls-1 {
        fill: #111;
        stroke: #111;
        stroke-miterlimit: 10;
        stroke-width: 4px;
      }
    </style>
  </defs>
  <g id="Capa_1-2" data-name="Capa 1">
    <g>
      <path class="cls-1" d="M289.83,32.55h-72.32c-8.19-18.57-26.58-30.55-46.88-30.55s-38.69,11.98-46.88,30.55H51.42c-27.28,.03-49.39,22.14-49.42,49.42V402.58c.03,27.28,22.14,49.39,49.42,49.42h238.41c27.28-.03,49.39-22.14,49.42-49.42V81.98c-.03-27.28-22.14-49.39-49.42-49.42Zm-157.95,22.5c5.28,0,9.85-3.67,10.99-8.84,2.76-12.58,14.44-21.72,27.76-21.72s24.99,9.14,27.76,21.72c1.13,5.16,5.7,8.84,10.99,8.84h22.31v9.87c-.02,14.86-12.06,26.9-26.92,26.92h-68.27c-14.86-.02-26.91-12.06-26.92-26.92v-9.87h22.31Zm184.87,347.52c-.01,14.86-12.06,26.91-26.92,26.92H51.42c-14.86-.01-26.9-12.06-26.92-26.92V81.98c.02-14.86,12.06-26.91,26.92-26.92h35.65v9.87c.03,27.28,22.14,49.39,49.42,49.42h68.27c27.28-.03,49.39-22.14,49.42-49.42v-9.87h35.65c14.86,.02,26.91,12.06,26.92,26.92V402.58Z"/>
      <path class="cls-1" d="M226.3,209.86l-73.86,72.11-37.5-36.61c-4.41-4.32-11.48-4.26-15.83,.11-4.35,4.38-4.37,11.44-.04,15.84l.15,.15,45.36,44.29c4.37,4.27,11.35,4.27,15.72,0l81.71-79.78c4.42-4.35,4.49-11.44,.17-15.88-4.33-4.43-11.43-4.53-15.88-.22h0Z"/>
    </g>
  </g>
</svg>