<?xml version="1.0" encoding="UTF-8"?>
<svg id="Capa_2" data-name="Capa 2" xmlns="http://www.w3.org/2000/svg" viewBox="0 0 447.99 450">
  <defs>
    <style>
      .cls-1 {
        fill: #fff;
      }
    </style>
  </defs>
  <g id="Capa_1-2" data-name="Capa 1">
    <g id="_8" data-name=" 8">
      <path class="cls-1" d="M318.12,330.52c-8.87-.05-16.02-7.28-15.97-16.15,.03-4.84,2.24-9.41,6.01-12.43l97.64-76.76-96.35-76.12c-6.96-5.5-8.15-15.6-2.65-22.56,5.5-6.96,15.6-8.15,22.56-2.65l112.41,88.64c7.01,5.44,8.28,15.53,2.84,22.53-.82,1.06-1.78,2.02-2.84,2.84l-113.86,88.8c-2.74,2.35-6.19,3.71-9.8,3.85h0Z"/>
      <path class="cls-1" d="M133.77,354.45c-3.55-.01-6.99-1.2-9.8-3.37L5.78,258.74C2.03,255.61-.1,250.94,0,246.06c.06-4.91,2.37-9.53,6.26-12.53l117.23-92.34c7.01-5.5,17.14-4.28,22.64,2.73s4.28,17.14-2.73,22.64L42.08,246.86l102.13,80.29c6.92,5.55,8.03,15.66,2.48,22.57-3.03,3.77-7.6,5.98-12.43,6.01l-.48-1.28Z"/>
      <path class="cls-1" d="M177.61,450h-3.53c-8.66-1.9-14.14-10.47-12.24-19.13,.01-.05,.02-.09,.03-.14L256.94,12.89c1.75-8.69,10.22-14.32,18.92-12.57,.06,.01,.13,.03,.19,.04,8.64,1.99,14.04,10.61,12.05,19.25v.02s-95.39,417.84-95.39,417.84c-1.6,7.12-7.8,12.27-15.1,12.53Z"/>
    </g>
  </g>
</svg>