<?xml version="1.0" encoding="UTF-8"?>
<svg id="Capa_2" data-name="Capa 2" xmlns="http://www.w3.org/2000/svg" viewBox="0 0 307.43 455">
  <defs>
    <style>
      .cls-1 {
        fill: #111;
        stroke: #111;
        stroke-miterlimit: 10;
        stroke-width: 5px;
      }
    </style>
  </defs>
  <g id="Capa_1-2" data-name="Capa 1">
    <path class="cls-1" d="M135.61,452.5h36.23c17.06,0,30.97-13.89,30.98-30.98v-11.35c10.66-4.91,18.13-15.62,18.13-28.1v-38.42c1.82-3.95,2.9-8.28,2.9-12.91,0-10.49,2.33-20.66,6.93-30.23,4.55-9.49,11.22-18.1,19.25-24.88,38.69-32.69,58.96-82.51,54.22-133.33C297.02,66.12,233.89,6.07,156.92,2.6l-3.2-.1-3.66,.11C73.55,6.07,10.42,66.12,3.18,142.31c-4.73,50.78,15.54,100.62,54.23,133.3,8.04,6.8,14.7,15.4,19.25,24.89,4.6,9.57,6.93,19.74,6.93,30.23,0,4.62,1.08,8.96,2.9,12.91v38.43c0,12.49,7.46,23.21,18.13,28.1v11.36c.01,17.07,13.92,30.96,30.98,30.96h0Zm46.56-30.98c0,5.7-4.64,10.33-10.33,10.33h-36.23c-5.69,0-10.33-4.64-10.33-10.33v-8.47h56.89v8.47Zm18.13-39.44c0,5.69-4.63,10.33-10.33,10.33H117.48c-5.7,0-10.33-4.64-10.33-10.33v-21.36c2.4,.6,4.85,1,7.43,1h78.29c2.57,0,5.03-.4,7.43-1v21.36Zm-96.04-51.34c0-13.61-3.02-26.8-8.96-39.17-5.81-12.09-14.3-23.06-24.54-31.72-33.54-28.32-51.1-71.53-47-115.58C30.01,78.27,84.71,26.25,150.52,23.26l3.2-.1,2.74,.09c66.28,3,120.97,55.02,127.23,120.98,4.11,44.07-13.46,87.28-46.99,115.6-10.24,8.66-18.73,19.62-24.54,31.72-5.95,12.37-8.96,25.56-8.96,39.17,0,5.69-4.63,10.33-10.33,10.33H114.58c-5.7,0-10.33-4.64-10.33-10.33Z"/>
  </g>
</svg>