<?xml version="1.0" encoding="UTF-8"?>
<svg id="Capa_2" data-name="Capa 2" xmlns="http://www.w3.org/2000/svg" viewBox="0 0 454.01 454.02">
  <defs>
    <style>
      .cls-1 {
        fill: #111;
      }
    </style>
  </defs>
  <g id="Capa_1-2" data-name="Capa 1">
    <g id="Capa_1-2" data-name="Capa 1-2">
      <path class="cls-1" d="M412.3,96.12c-3.73-5.26-7.29-9.92-10.9-14.22C358.03,29.86,294.46,0,227.01,0h-.3c-.22-.02-.47,0-.73,0-.1,0-.19,.01-.31,.01C158.77,.42,95.68,30.26,52.61,81.9c-3.69,4.44-7.36,9.22-10.89,14.22C14.42,134.64,0,179.91,0,227.02s14.42,92.39,41.71,130.9c3.58,5.06,7.25,9.84,10.9,14.22,43.06,51.64,106.14,81.48,173.08,81.86,.1,0,.2,0,.3,.01,.26,.01,.46,.02,.75,0h.26c67.46,0,131.03-29.84,174.4-81.88,3.62-4.35,7.29-9.14,10.9-14.23,27.29-38.52,41.71-83.79,41.71-130.91s-14.42-92.36-41.71-130.89v.02Zm-73.75,126.89h-100.25v-67.93c31.45-.9,61.63-5.57,89.78-13.88,6.65,25.99,10.17,53.49,10.47,81.81h0Zm4.1-109.86c-10.88-31.56-26.03-58.19-44.13-77.66,32.05,12.03,60.67,32.06,83.31,58.35-11.57,7.36-24.73,13.85-39.18,19.31Zm-104.35,19.6V23.66c34.22,6.62,65.23,42.38,83.52,96.44-26.02,7.51-54.09,11.76-83.52,12.64h0Zm143.5,227.46c-22.65,26.31-51.26,46.34-83.26,58.37,18.13-19.49,33.29-46.11,44.15-77.64,14.42,5.45,27.55,11.93,39.11,19.27h0Zm-143.51-114.19h99.79c-1.15,23.25-4.49,45.83-9.92,67.18-28.12-8.32-58.33-13-89.86-13.91l-.02-53.27h.01Zm83.58,87.93c-18.31,54.05-49.34,89.81-83.57,96.43v-109.07c29.42,.88,57.51,5.12,83.57,12.64Zm108.67-87.93c-3.14,34.82-15.34,68.4-35.36,97.35-13.62-8.91-29.11-16.67-46.1-23.1,6.3-23.73,10.1-48.69,11.33-74.25h70.13Zm.83-23h-70.5c-.31-30.86-4.27-60.76-11.78-88.9,17.04-6.46,32.52-14.22,46.09-23.09,22.95,33.23,35.44,71.87,36.2,111.99h-.01ZM103.77,133.73c-7.58,28.31-11.58,58.33-11.9,89.28H22.44c.76-40.12,13.25-78.77,36.21-112,13.32,8.7,28.48,16.34,45.12,22.72Zm-31.8-39.91c22.21-25.8,50.26-45.6,81.67-57.7-17.78,19.35-32.68,45.63-43.43,76.67-14.07-5.38-26.91-11.76-38.24-18.97ZM215.3,223.01H113.97c.3-28.44,3.85-56.04,10.54-82.11,28.42,8.5,58.94,13.27,90.79,14.18v67.93h0Zm-122.99,23c1.24,25.72,5.09,50.81,11.45,74.63-16.65,6.38-31.8,14.02-45.1,22.73-20.04-29.02-32.24-62.6-35.37-97.36H92.31Zm22.12,0h100.87v53.26c-31.94,.92-62.49,5.7-90.88,14.21-5.48-21.38-8.83-44.06-9.99-67.47Zm-4.24,95.23c10.74,31.02,25.65,57.3,43.44,76.66-31.31-12.06-59.34-31.88-81.6-57.73,11.32-7.19,24.14-13.55,38.16-18.93Zm105.11-19.96v109.26c-34.64-6.06-66.04-41.79-84.56-96.34,26.33-7.69,54.76-12.04,84.56-12.93h0Zm0-297.8v109.26c-29.84-.89-58.25-5.23-84.51-12.91,18.52-54.55,49.9-90.29,84.51-96.35Z"/>
    </g>
  </g>
</svg>