<?xml version="1.0" encoding="utf-8"?>
<!-- Generator: Adobe Illustrator 26.4.1, SVG Export Plug-In . SVG Version: 6.00 Build 0)  -->
<svg version="1.1" id="Capa_2_00000129185674809329411880000000886908532177655743_"
	 xmlns="http://www.w3.org/2000/svg" xmlns:xlink="http://www.w3.org/1999/xlink" x="0px" y="0px" viewBox="0 0 454 454"
	 style="enable-background:new 0 0 454 454;" xml:space="preserve">
<style type="text/css">
	.st0{fill:#111111;}
</style>
<g>
	<g>
		<path class="st0" d="M400.9,308.8c-12.8,0-24.4,4.9-33.4,12.7L297.4,268c7.1-12.1,11.4-26,11.4-41c0-14.4-4.1-27.7-10.6-39.5
			l48-35.2c9.1,8.2,21,13.4,34.2,13.4c28.2,0,51.1-22.9,51.1-51.1s-22.9-51.1-51.1-51.1s-51.1,22.9-51.1,51.1
			c0,7.6,1.8,14.8,4.8,21.3l-47.8,35.1c-14.9-15.7-35.9-25.7-59.2-25.7c-6.5,0-12.8,1-18.9,2.4l-11.8-31.4
			C214.6,105.5,227,86,227,63.4C227,29.5,199.5,2,165.6,2s-61.4,27.5-61.4,61.4s27.5,61.4,61.4,61.4c4,0,7.9-0.4,11.6-1.2l11.8,31.4
			c-21.7,11.5-37.7,32.2-42.4,57.1l-43.2-2.5c-3.6-24.7-24.7-43.9-50.4-43.9C24.9,165.6,2,188.6,2,216.8s22.9,51.1,51.1,51.1
			c23.6,0,43.4-16.2,49.2-38l43.4,2.5c1.4,20.8,10.3,39.5,24.5,53.2l-38,50.6c-8.4-4.4-17.8-7.1-28-7.1c-33.8,0-61.4,27.5-61.4,61.4
			S70.4,452,104.3,452s61.4-27.5,61.4-61.4c0-16.3-6.5-31.1-17-42.1l38-50.7c11.9,6.8,25.6,11,40.3,11c22.8,0,43.4-9.4,58.2-24.4
			l69.8,53.4c-3.3,6.7-5.3,14.2-5.3,22.2c0,28.2,22.9,51.1,51.1,51.1S452,388.2,452,360S429.1,308.8,400.9,308.8z M380.4,83.8
			c16.9,0,30.7,13.8,30.7,30.7s-13.8,30.7-30.7,30.7c-16.9,0-30.7-13.8-30.7-30.7S363.5,83.8,380.4,83.8z M53.1,247.5
			c-16.9,0-30.7-13.8-30.7-30.7s13.8-30.7,30.7-30.7s30.7,13.8,30.7,30.7S70.1,247.5,53.1,247.5z M104.3,431.6
			c-22.6,0-40.9-18.3-40.9-40.9c0-22.6,18.3-40.9,40.9-40.9s40.9,18.3,40.9,40.9C145.2,413.2,126.8,431.6,104.3,431.6z M165.6,104.3
			c-22.6,0-40.9-18.3-40.9-40.9s18.3-40.9,40.9-40.9s40.9,18.3,40.9,40.9S188.2,104.3,165.6,104.3z M227,288.4
			c-33.8,0-61.4-27.5-61.4-61.4s27.5-61.4,61.4-61.4s61.4,27.5,61.4,61.4S260.8,288.4,227,288.4z M400.9,390.6
			c-16.9,0-30.7-13.8-30.7-30.7c0-16.9,13.8-30.7,30.7-30.7c16.9,0,30.7,13.8,30.7,30.7C431.6,376.9,417.8,390.6,400.9,390.6z"/>
	</g>
</g>
</svg>
