<?xml version="1.0" encoding="UTF-8"?>
<svg id="Capa_2" data-name="Capa 2" xmlns="http://www.w3.org/2000/svg" viewBox="0 0 410.38 459">
  <defs>
    <style>
      .cls-1 {
        fill: #fff;
        stroke: #fff;
        stroke-miterlimit: 10;
        stroke-width: 9px;
      }
    </style>
  </defs>
  <g id="Layer_1" data-name="Layer 1">
    <g>
      <path class="cls-1" d="M205.08,185.32c-24.27,0-44.02,19.75-44.02,44.02,2.21,58.3,85.82,58.29,88.03,0,0-24.27-19.74-44.02-44.01-44.02Zm0,70.44c-14.57,0-26.43-11.85-26.43-26.42,1.33-35,51.52-35,52.84,0,0,14.57-11.85,26.42-26.42,26.42Z"/>
      <path class="cls-1" d="M306.64,299.7l10.15-17.58c5.79-10.03,4.17-22.81-3.96-31.06l-15.65-15.91s0,0,0,0c-3.15-3.2-3.15-8.4,0-11.6l15.66-15.91c8.11-8.26,9.74-21.04,3.95-31.07l-10.15-17.58c-5.79-10.03-17.67-15-28.89-12.1l-21.61,5.6c-4.34,1.12-8.84-1.47-10.04-5.8l-5.95-21.5c-3.08-11.17-13.33-18.97-24.92-18.97h-20.3c-11.58,0-21.83,7.8-24.93,18.97l-5.96,21.51c-1.19,4.32-5.69,6.92-10.04,5.79l-21.6-5.59c-11.22-2.91-23.1,2.06-28.89,12.1l-10.15,17.59c-5.78,10.03-4.16,22.8,3.96,31.07l15.65,15.9c3.14,3.2,3.14,8.4,0,11.6l-15.66,15.91c-8.12,8.26-9.75,21.03-3.96,31.06l10.15,17.59c5.8,10.04,17.67,15.01,28.89,12.1l21.6-5.6c4.35-1.12,8.85,1.48,10.05,5.8l5.96,21.51c3.1,11.16,13.35,18.95,24.93,18.95h20.3c11.59,0,21.84-7.8,24.92-18.96l5.96-21.51c1.19-4.32,5.7-6.92,10.04-5.8l21.6,5.6c11.22,2.91,23.09-2.07,28.89-12.1h0Zm-77.49,7.61l-5.96,21.51c-.99,3.57-4.26,6.05-7.96,6.05h-20.3c-3.7,0-6.98-2.49-7.97-6.06l-5.95-21.5c-3.69-13.61-18.14-21.68-31.41-18.15l-21.61,5.6c-3.58,.93-7.38-.66-9.23-3.87l-10.15-17.59c-1.85-3.21-1.33-7.29,1.26-9.93l15.66-15.92c9.83-10,9.83-26.27,0-36.27l-15.65-15.9c-2.6-2.65-3.12-6.74-1.27-9.94l10.15-17.58c1.85-3.21,5.65-4.79,9.24-3.86l21.6,5.59c13.58,3.53,27.67-4.61,31.41-18.13l5.96-21.51c.99-3.57,4.27-6.07,7.97-6.07h20.3c3.7,0,6.98,2.49,7.96,6.07l5.95,21.51c3.74,13.52,17.83,21.66,31.41,18.14l21.61-5.6c3.59-.93,7.38,.66,9.23,3.86l10.15,17.58c1.85,3.21,1.33,7.3-1.26,9.94l-15.65,15.9c-9.84,10-9.84,26.27,0,36.27l15.65,15.91c2.6,2.64,3.12,6.72,1.26,9.93l-10.15,17.58c-1.85,3.21-5.65,4.8-9.24,3.87l-21.61-5.61c-13.58-3.51-27.67,4.63-31.4,18.14h0Z"/>
      <path class="cls-1" d="M205.08,70.33c14.34,0,26.56-9.19,31.11-21.98l2.08,.37c18.28,3.34,35.88,9.42,52.33,18.1,.28,.19,.57,.37,.88,.53,46.79,24.88,80.5,68.92,92.5,120.81,1.07,4.77,5.94,7.69,10.55,6.59,4.73-1.09,7.68-5.82,6.59-10.55-13.06-56.51-49.65-104.53-100.45-131.89-.28-.2-.58-.38-.89-.54-18.31-9.79-37.94-16.64-58.38-20.37l-3.97-.71c-8.76-38.46-64.35-33.17-65.36,6.62,0,18.2,14.81,33.01,33.01,33.01h0Zm0-48.43c8.5,0,15.42,6.92,15.42,15.42-.77,20.43-30.07,20.42-30.84,0,0-8.5,6.92-15.42,15.42-15.42h0Z"/>
      <path class="cls-1" d="M205.08,388.67c-14.19,0-26.32,9-30.98,21.6l-2.22-.37c-18.59-3.4-36.47-9.64-53.17-18.57C-8,324.59-10.7,140.46,113.91,70.05l-3.96,12.4c-1.48,4.63,1.08,9.58,5.71,11.05,.89,.28,1.79,.42,2.68,.42,3.73,0,7.19-2.39,8.38-6.13l10.29-32.27c1.49-4.68-1.29-9.81-6-11.15l-30.84-9.84c-4.63-1.48-9.58,1.08-11.05,5.71-1.48,4.63,1.08,9.58,5.71,11.05l10.55,3.36C-31.42,131.77-28.46,333.71,110.44,406.86c18.31,9.79,37.94,16.64,58.35,20.36,.04,0,.09,.02,.13,.02l3.74,.63c8.32,38.83,64.4,33.86,65.44-6.18,0-18.2-14.81-33.01-33.01-33.01h0Zm0,48.43c-8.5,0-15.42-6.92-15.42-15.42,.77-20.43,30.07-20.42,30.84,0,0,8.5-6.92,15.42-15.42,15.42h0Z"/>
      <path class="cls-1" d="M395.19,259.97c-4.76-.99-9.42,2.05-10.41,6.8-1.3,6.22-2.93,12.4-4.83,18.35-13.76,43.14-43.02,79.51-81.66,102.31l3.85-12.05c1.48-4.63-1.08-9.58-5.71-11.05-4.63-1.48-9.58,1.08-11.05,5.71l-10.29,32.27c-1.48,4.67,1.29,9.82,6,11.15l30.85,9.84c4.5,1.47,9.59-1.04,11.05-5.71,1.48-4.63-1.08-9.58-5.71-11.05l-10.85-3.46c42.74-24.96,75.11-65.02,90.28-112.6,2.08-6.52,3.86-13.28,5.29-20.09,1-4.76-2.05-9.42-6.81-10.42h0Z"/>
      <path class="cls-1" d="M405.71,224.95c-.95-4.69-5.63-7.86-10.34-6.91-11.32,2.83-8.08,18.98,3.44,17.25,4.69-.94,7.86-5.65,6.91-10.34h0Z"/>
    </g>
  </g>
</svg>