<?xml version="1.0" encoding="UTF-8"?>
<svg id="Capa_2" data-name="Capa 2" xmlns="http://www.w3.org/2000/svg" viewBox="0 0 450 450">
  <defs>
    <style>
      .cls-1 {
        fill: #111;
      }
    </style>
  </defs>
  <g id="Capa_1-2" data-name="Capa 1">
    <g>
      <path class="cls-1" d="M225,450c124.05,0,225-100.95,225-225S349.05,0,225,0,0,100.95,0,225s100.95,225,225,225Zm0-420c107.55,0,195,87.45,195,195s-87.45,195-195,195S30,332.55,30,225,117.45,30,225,30h0Z"/>
      <path class="cls-1" d="M290.63,296.7c2.78,2.25,6.07,3.3,9.37,3.3,4.43,0,8.77-1.95,11.7-5.62,5.18-6.45,4.12-15.9-2.32-21.08l-69.38-55.5V105c0-8.25-6.75-15-15-15s-15,6.75-15,15v120c0,4.58,2.1,8.85,5.62,11.7l75,60Z"/>
    </g>
  </g>
</svg>