<?xml version="1.0" encoding="UTF-8"?>
<svg id="Capa_2" data-name="Capa 2" xmlns="http://www.w3.org/2000/svg" viewBox="0 0 621.73 193.16">
  <defs>
    <style>
      .cls-1, .cls-2 {
        fill: #fff;
      }

      .cls-2 {
        opacity: .8;
      }
    </style>
  </defs>
  <g id="Capa_1-2" data-name="Capa 1">
    <g>
      <g>
        <g>
          <path class="cls-2" d="M114.29,136.29l-1.99,1.92,.03,54.95,56.71-16.06-14.41-88.94c-15.55,23.99-38.88,46.71-40.35,48.13Z"/>
          <path class="cls-1" d="M191.89,84.95l-31.78-5.93c-1.66,3.04-3.5,6.09-5.47,9.13l14.41,88.94,55.42,13.7-32.57-105.84Z"/>
          <path class="cls-1" d="M112.2,138.31l-2.09-2.02c-1.46-1.42-24.66-24.07-40.22-47.99l-14.31,88.85,56.74,16.02-.03-54.95-.1,.1Z"/>
          <path class="cls-2" d="M32.77,84.64L0,191.99l55.59-16.06,14.15-87.87c-2.14-3.3-4.13-6.63-5.9-9.93l-31.06,6.52Z"/>
        </g>
        <path class="cls-1" d="M112.2,0c-29.4,0-53.23,23.83-53.23,53.23s53.23,80.9,53.23,80.9c0,0,53.23-51.5,53.23-80.9S141.6,0,112.2,0Zm17.21,64.99c-.98,1.29-2.1,2.47-3.34,3.53-1.13,.96-2.36,1.81-3.66,2.52-2.67,1.47-5.61,2.38-8.65,2.65-.32,.03-.6,.04-.98,.07-.38,.02-.76,.03-1.14,.02-.38,0-.76-.03-1.13-.03l-1.11-.89c-1.21-.97-2.42-1.96-3.64-2.89-1.18-.92-2.42-1.78-3.7-2.56-1.18-.72-2.44-1.29-3.77-1.67-1.23-.36-2.52-.43-3.78-.21-1.02-1.26-1.91-2.64-2.64-4.09-.34-.66-.64-1.34-.9-2.04,.34-.49,.78-.91,1.29-1.22,.51-.32,1.08-.53,1.67-.62,1.4-.17,2.83-.06,4.19,.34,1.72,.48,3.4,1.07,5.04,1.78,1.77,.74,3.62,1.58,5.49,2.36,1.49,.63,2.99,1.24,4.47,1.77,.39,.13,.79,.27,1.18,.39,1.8,.6,3.67,.97,5.57,1.11,.59,.04,1.18,.04,1.77,0,1.08-.1,2.14-.26,3.2-.48,1.98-.4,3.93-.96,5.83-1.66-.39,.63-.81,1.24-1.25,1.82Zm4.39-10.81c-1.99,1.31-4.35,1.94-6.72,1.8-2.35-.11-4.79-.83-7.29-2.01-2.67-1.29-5.24-2.8-7.67-4.51-1.84-1.25-3.69-2.6-5.55-3.96-.72-.53-1.43-1.02-2.15-1.48-2.67-1.72-5.34-2.85-7.79-2.73-2.27,.11-4.38,1.3-6.21,4.1,1.5-5.41,5-10.06,9.79-12.99,1.79-.08,3.58,.04,5.34,.35,1.76,.29,3.48,.75,5.15,1.36,1.68,.61,3.33,1.34,4.95,2.04,1.55,.69,3.14,1.3,4.75,1.83,1.45,.48,2.97,.73,4.51,.72,1.49-.03,2.95-.47,4.21-1.27,1.88,2.33,3.26,5.02,4.07,7.9,.81,2.88,1.02,5.9,.62,8.86Z"/>
      </g>
      <g>
        <path class="cls-1" d="M280.75,140.76V52.39h35.11c10.37,0,18.12,2.51,23.27,7.54,5.14,5.03,7.72,12.73,7.72,23.09s-2.83,18.46-8.48,24.27c-5.66,5.81-13.75,8.72-24.27,8.72h-12.73v24.74h-20.62Zm20.62-40.65h9.66c6.05,0,10.07-1.47,12.08-4.42s3-7.17,3-12.67-1.1-9.21-3.3-11.37c-2.2-2.16-6.01-3.24-11.43-3.24h-10.02v31.69Z"/>
        <path class="cls-1" d="M356.63,93.52c0-13.27,3.4-23.6,10.19-30.99,6.79-7.38,16.67-11.08,29.63-11.08s22.84,3.65,29.63,10.96c6.79,7.3,10.19,17.67,10.19,31.1v6.13c0,13.28-3.4,23.61-10.19,30.99-6.79,7.38-16.67,11.08-29.63,11.08s-22.84-3.65-29.63-10.96c-6.8-7.31-10.19-17.67-10.19-31.11v-6.13Zm20.62,6.13c0,8.17,1.37,14.45,4.12,18.85,2.75,4.4,7.78,6.6,15.08,6.6s12.33-2.2,15.08-6.6c2.75-4.4,4.12-10.68,4.12-18.85v-6.13c0-8.17-1.38-14.45-4.12-18.85-2.75-4.4-7.78-6.6-15.08-6.6s-12.33,2.2-15.08,6.6c-2.75,4.4-4.12,10.68-4.12,18.85v6.13Z"/>
        <path class="cls-1" d="M446.17,91.28c0-13.67,4.58-23.72,13.73-30.16,9.15-6.44,20.09-9.66,32.81-9.66,4.95,0,9.96,.53,15.02,1.59,5.07,1.06,8.5,2.02,10.31,2.89v15.79h-.82c-2.28-.86-5.83-1.79-10.66-2.77-4.83-.98-9.37-1.47-13.61-1.47-6.91,0-13,1.77-18.26,5.3-5.26,3.53-7.89,9.7-7.89,18.5v10.25c0,7.86,2.12,13.84,6.36,17.97,4.24,4.12,9.74,6.19,16.5,6.19h3.65c1.41,0,2.83-.1,4.24-.29,1.41-.2,2.71-.45,3.89-.77v-16.26h-13.55v-16.26h31.46v44.65c-2.12,.87-5.77,1.91-10.96,3.12-5.18,1.22-10.21,1.83-15.08,1.83h-4.24c-13.83,0-24.43-3.69-31.81-11.08-7.38-7.38-11.08-17.08-11.08-29.1v-10.25Z"/>
        <path class="cls-1" d="M534.78,140.76V52.39h18.85l24.39,36.88,24.86-36.88h18.85v88.37h-20.62v-56.08l-20.97,28.98h-5.42l-19.21-28.63v55.73h-20.74Z"/>
      </g>
    </g>
  </g>
</svg>