<?xml version="1.0" encoding="UTF-8"?>
<svg id="Capa_2" data-name="Capa 2" xmlns="http://www.w3.org/2000/svg" viewBox="0 0 549.05 177.07">
  <defs>
    <style>
      .cls-1 {
        fill: #fff;
      }
    </style>
  </defs>
  <g id="Capa_1-2" data-name="Capa 1">
    <g>
      <g>
        <path class="cls-1" d="M288.16,132.04V45.04h34.57c10.21,0,17.84,2.48,22.91,7.42,5.06,4.95,7.6,12.53,7.6,22.74s-2.78,18.17-8.35,23.9c-5.57,5.72-13.53,8.58-23.9,8.58h-12.53v24.36h-20.3Zm20.3-40.02h9.51c5.95,0,9.92-1.45,11.89-4.35,1.97-2.9,2.96-7.06,2.96-12.47s-1.08-9.07-3.25-11.2c-2.17-2.12-5.92-3.19-11.25-3.19h-9.86v31.2Z"/>
        <path class="cls-1" d="M365.3,132.04V45.04h20.3v87h-20.3Z"/>
        <path class="cls-1" d="M399.87,113.59h.93c2.63,.85,6.28,1.66,10.96,2.44,4.68,.77,8.64,1.16,11.89,1.16h3.02c3.94,0,7.27-.71,9.98-2.15,2.71-1.43,4.06-4.12,4.06-8.06,0-3.17-.93-5.41-2.78-6.73-1.86-1.31-4.41-2.44-7.66-3.36l-11.72-3.48c-4.49-1.31-8.66-3.81-12.53-7.48-3.87-3.67-5.8-9.07-5.8-16.18,0-8.74,3.27-15.2,9.8-19.37,6.53-4.18,14.17-6.26,22.91-6.26h2.09c3.17,0,7.04,.33,11.6,.99,4.56,.66,8.04,1.45,10.44,2.38v15.2h-.93c-2.17-.62-5.41-1.24-9.74-1.86-4.33-.62-7.93-.93-10.79-.93h-2.32c-3.56,0-6.59,.64-9.11,1.91-2.51,1.28-3.77,3.62-3.77,7.02,0,3.02,.95,5.12,2.84,6.32,1.89,1.2,4.04,2.15,6.44,2.84l11.48,3.48c5.64,1.7,10.36,4.33,14.15,7.89,3.79,3.56,5.68,9.05,5.68,16.47,0,9.28-3.19,16.12-9.57,20.53-6.38,4.41-14.25,6.61-23.61,6.61h-4.18c-3.33,0-7.46-.41-12.41-1.22-4.95-.81-8.74-1.6-11.37-2.38v-15.78Z"/>
        <path class="cls-1" d="M466.69,132.04v-.93c3.17-14,7.62-29.71,13.34-47.15,5.72-17.44,10.75-30.41,15.08-38.92h25.4c4.25,8.51,9.28,21.48,15.08,38.92,5.8,17.44,10.28,33.16,13.46,47.15v.93h-21.58l-4.41-18.68h-31.9l-4.41,18.68h-20.07Zm34.92-56.78c-2.17,7-4.29,14.44-6.38,22.33h24.01c-2.09-7.89-4.16-15.33-6.21-22.33-2.05-7-3.93-12.28-5.63-15.83-1.7,3.56-3.64,8.84-5.8,15.83Z"/>
      </g>
      <g>
        <polygon class="cls-1" points="144.78 0 123.73 21.05 184.14 81.47 191.22 88.54 184.14 95.61 123.73 156.02 144.78 177.07 233.31 88.54 144.78 0"/>
        <path class="cls-1" d="M116.66,28.12L88.54,0,0,88.54l88.54,88.54,28.12-28.12,60.42-60.42L116.66,28.12Zm-10.99,79.42c-1.39,1.18-2.91,2.24-4.5,3.12-1.62,.88-3.3,1.62-5.1,2.17-1.78,.55-3.65,.92-5.54,1.09-.85,.07-1.73,.12-2.61,.12-.46,0-.92,0-1.41-.05-.46-.37-.92-.72-1.36-1.09-1.5-1.2-2.98-2.43-4.48-3.56-1.52-1.15-3.03-2.24-4.55-3.14-1.35-.81-2.7-1.44-4.06-1.87-.2-.06-.39-.13-.59-.18-1.55-.42-3.1-.55-4.64-.25-1.82-2.24-3.3-4.78-4.37-7.53,.23-.33,.49-.61,.76-.87,.81-.76,1.79-1.21,2.89-1.4l-.05,.02c.46-.07,.92-.12,1.43-.12,1.13,0,2.4,.21,3.74,.53,1.92,.49,4,1.27,6.17,2.15,2.17,.9,4.46,1.92,6.77,2.89,2.33,.99,4.67,1.94,6.98,2.68,2.38,.76,4.69,1.29,6.88,1.41,.74,.05,1.48,.05,2.17-.02,1.09-.09,2.45-.28,3.95-.6,2.22-.44,4.74-1.13,7.18-2.06-1.55,2.47-3.44,4.69-5.66,6.56Zm9.49-17.62c-2.61,1.71-5.38,2.36-8.29,2.22-2.89-.14-5.89-1.04-8.98-2.47-3.07-1.43-6.24-3.37-9.45-5.54-2.26-1.55-4.55-3.21-6.84-4.87-.88-.65-1.76-1.27-2.66-1.82-2.82-1.82-5.63-3.08-8.27-3.32-.45-.04-.9-.06-1.34-.03-2.79,.14-5.4,1.62-7.65,5.06,1.85-6.74,6.24-12.45,12.06-16.03l.02-.02c.44-.02,.88-.05,1.34-.05,1.57,0,3.3,.14,5.24,.46,.26,.04,.52,.1,.78,.15,1.89,.35,3.74,.87,5.57,1.54,2.06,.76,4.09,1.64,6.1,2.49,1.99,.85,3.95,1.66,5.84,2.26,1.89,.58,3.76,.95,5.54,.9,1.8-.05,3.53-.51,5.2-1.57,3.76,4.71,6.03,10.69,6.01,17.23,0,1.15-.09,2.29-.23,3.42Z"/>
      </g>
    </g>
  </g>
</svg>