<?xml version="1.0" encoding="utf-8"?>
<!-- Generator: Adobe Illustrator 26.4.1, SVG Export Plug-In . SVG Version: 6.00 Build 0)  -->
<svg version="1.1" id="Capa_1" xmlns="http://www.w3.org/2000/svg" xmlns:xlink="http://www.w3.org/1999/xlink" x="0px" y="0px"
	 viewBox="0 0 674.2 180" style="enable-background:new 0 0 674.2 180;" xml:space="preserve">
<style type="text/css">
	.st0{fill:#FFFFFF;}
	.st1{clip-path:url(#SVGID_00000065776579614288839790000009454742231596776859_);}
	.st2{opacity:0.6;}
	.st3{fill:#111111;}
</style>
<g>
	<g id="Capa_2_00000111175504856701323240000015393119955637702026_">
		<g id="Capa_1-2">
			<g>
				<g>
					<path class="st0" d="M281.4,134.6V45.4h35.5c10.5,0,18.3,2.5,23.5,7.6c5.2,5.1,7.8,12.8,7.8,23.3s-2.9,18.6-8.6,24.5
						c-5.7,5.9-13.9,8.8-24.5,8.8h-12.9v25L281.4,134.6L281.4,134.6z M302.2,93.6h9.8c6.1,0,10.2-1.5,12.2-4.5s3-7.2,3-12.8
						s-1.1-9.3-3.3-11.5s-6.1-3.3-11.5-3.3h-10.1L302.2,93.6L302.2,93.6z"/>
					<path class="st0" d="M349.5,134.6v-0.9c3.2-14.3,7.8-30.5,13.7-48.3s11-31.2,15.5-39.9h26c4.4,8.7,9.5,22,15.5,39.9
						c6,17.9,10.5,34,13.8,48.3v0.9h-22.1l-4.5-19.2h-32.7l-4.5,19.2H349.5z M385.2,76.4c-2.2,7.2-4.4,14.8-6.5,22.9h24.6
						c-2.1-8.1-4.3-15.7-6.4-22.9c-2.1-7.2-4-12.6-5.8-16.2C389.5,63.8,387.5,69.2,385.2,76.4z"/>
					<path class="st0" d="M440.1,85c0-13.8,4.1-24,12.4-30.6s19-9.9,32.2-9.9c4.1,0,8.4,0.4,12.7,1.1c4.4,0.8,7.9,1.7,10.7,2.7v24.5
						h-16.8V61.7c-1.1-0.3-2.4-0.6-4-0.8s-3.1-0.3-4.6-0.3c-6.8,0-12.2,2-16.1,6.1c-3.9,4.1-5.8,10-5.8,17.7V95
						c0,7.4,2,13.4,5.9,17.8c3.9,4.4,9.5,6.6,16.6,6.6h4.3c3.4,0,7.1-0.4,11-1.3c3.9-0.9,6.8-1.7,8.5-2.4h1v15.7
						c-2.1,0.9-5.2,1.9-9.3,2.8c-4,0.9-7.8,1.4-11.2,1.4h-5.5c-14,0-24.6-3.6-31.6-10.9c-7-7.3-10.5-17.2-10.5-29.6L440.1,85
						L440.1,85z"/>
					<path class="st0" d="M521.8,134.6V45.4h20.8v34.1H576V45.4h20.8v89.2H576V96.9h-33.4v37.7L521.8,134.6L521.8,134.6z"/>
					<path class="st0" d="M611.5,115.7h1c2.7,0.9,6.4,1.7,11.2,2.5s8.9,1.2,12.2,1.2h3.1c4,0,7.5-0.7,10.2-2.2
						c2.8-1.5,4.2-4.2,4.2-8.3c0-3.2-1-5.6-2.8-6.9c-1.9-1.3-4.5-2.5-7.8-3.4l-12-3.6c-4.6-1.3-8.9-3.9-12.8-7.7
						c-4-3.8-6-9.3-6-16.6c0-9,3.3-15.6,10-19.9s14.5-6.4,23.5-6.4h2.1c3.2,0,7.2,0.3,11.9,1c4.7,0.7,8.2,1.5,10.7,2.4v15.6h-1
						c-2.2-0.6-5.5-1.3-10-1.9s-8.1-1-11.1-1h-2.4c-3.7,0-6.8,0.7-9.3,2c-2.6,1.3-3.9,3.7-3.9,7.2c0,3.1,1,5.2,2.9,6.5
						c1.9,1.2,4.1,2.2,6.6,2.9l11.8,3.6c5.8,1.8,10.6,4.4,14.5,8.1c3.9,3.7,5.8,9.3,5.8,16.9c0,9.5-3.3,16.5-9.8,21.1
						s-14.6,6.8-24.2,6.8h-4.3c-3.4,0-7.7-0.4-12.7-1.2c-5.1-0.8-9-1.6-11.7-2.4L611.5,115.7L611.5,115.7z"/>
				</g>
				<g>
					<path class="st0" d="M0,0v180h220V0H0z M127.1,79c-1.4,1.2-2.9,2.2-4.5,3.1c-1.6,0.9-3.3,1.6-5.1,2.2c-1.8,0.6-3.7,0.9-5.5,1.1
						c-0.8,0.1-1.7,0.1-2.6,0.1c-0.5,0-0.9,0-1.4-0.1c-0.5-0.4-0.9-0.7-1.4-1.1c-1.5-1.2-3-2.4-4.5-3.6c-1.5-1.2-3-2.2-4.6-3.1
						c-1.6-0.9-3.1-1.6-4.6-2.1c-1.6-0.4-3.1-0.6-4.6-0.2c-1.8-2.2-3.3-4.8-4.4-7.5c0.9-1.3,2.2-2,3.7-2.3l-0.1,0
						c0.5-0.1,0.9-0.1,1.4-0.1c1.1,0,2.4,0.2,3.7,0.5c1.9,0.5,4,1.3,6.2,2.2c2.2,0.9,4.5,1.9,6.8,2.9c2.3,1,4.7,1.9,7,2.7
						c2.4,0.8,4.7,1.3,6.9,1.4c0.7,0.1,1.5,0.1,2.2,0c1.1-0.1,2.4-0.3,3.9-0.6c2.2-0.4,4.7-1.1,7.2-2.1
						C131.2,74.9,129.4,77.1,127.1,79L127.1,79z M136.6,61.4c-2.6,1.7-5.4,2.4-8.3,2.2c-2.9-0.1-5.9-1-9-2.5
						c-3.1-1.4-6.2-3.4-9.4-5.5c-2.3-1.5-4.6-3.2-6.8-4.9c-0.9-0.7-1.8-1.3-2.7-1.8c-3.3-2.1-6.6-3.5-9.6-3.3
						c-2.8,0.1-5.4,1.6-7.7,5.1c1.8-6.7,6.2-12.5,12.1-16l0,0c0.4,0,0.9,0,1.3,0c1.6,0,3.3,0.1,5.2,0.5c2.2,0.3,4.3,0.9,6.3,1.7
						c2.1,0.8,4.1,1.6,6.1,2.5c2,0.8,3.9,1.7,5.8,2.3c1.9,0.6,3.8,1,5.5,0.9c1.8,0,3.5-0.5,5.2-1.6c3.8,4.7,6,10.7,6,17.2
						C136.8,59.1,136.7,60.2,136.6,61.4L136.6,61.4z"/>
					<g>
						<defs>
							<rect id="SVGID_1_" y="0.4" width="220" height="179.6"/>
						</defs>
						<clipPath id="SVGID_00000137818955374140827000000017505537835140578483_">
							<use xlink:href="#SVGID_1_"  style="overflow:visible;"/>
						</clipPath>
						<g style="clip-path:url(#SVGID_00000137818955374140827000000017505537835140578483_);">
							<g>
								<g class="st2">
									<g>
										<polygon class="st3" points="-31.5,172.2 56.3,120 56.3,208.5 -31.4,208.5 										"/>
									</g>
									<g>
										<polygon class="st3" points="56,119.9 56,119.9 115.3,132.2 115.3,208.5 56.3,208.5 										"/>
									</g>
									<g>
										<polygon class="st3" points="115.3,132.2 115.3,132.2 158.8,110.8 158.8,208.5 115.3,208.5 										"/>
									</g>
									<g>
										<polygon class="st3" points="158.8,110.8 158.8,110.8 220,107.8 220,208.5 158.8,208.5 										"/>
									</g>
									<g>
										<polygon class="st3" points="313.8,33.5 313.8,206.5 236.2,206.5 236.2,105.7 236.2,105.7 										"/>
									</g>
									<g>
										<polygon class="st3" points="296.5,208.5 296.5,35.5 296.5,35.5 393.3,11.5 393.3,208.5 										"/>
									</g>
								</g>
								<g>
									<polygon class="st3" points="-34.1,174.4 -35.1,173.9 56.1,119.5 114.9,131.6 159.2,110.5 218.5,107.3 296.2,35.2 
										393,11.2 393.5,11.9 297.1,35.8 219.2,108 159.7,111.2 115.2,132.5 56.5,120.4 									"/>
									<g>
										<g>
											<path class="st3" d="M60.1,120.2c-0.1,2.2-2.1,3.9-4.3,3.8c-2.2-0.1-4-2.1-3.8-4.3s2.1-3.9,4.3-3.8
												S60.2,117.9,60.1,120.2z"/>
										</g>
										<g>
											<path class="st3" d="M3.7,152.9c-0.1,2.2-2.1,3.9-4.3,3.8c-2.2-0.1-4-2.1-3.8-4.3s2.1-3.9,4.3-3.8S3.8,150.6,3.7,152.9z"
												/>
										</g>
										<g>
											<path class="st3" d="M119.4,132.4c-0.1,2.2-2.1,3.9-4.3,3.8s-3.9-2.1-3.8-4.3s2.1-3.9,4.3-3.8
												C117.8,128.2,119.5,130.2,119.4,132.4z"/>
										</g>
										<g>
											<path class="st3" d="M162.8,111.1c-0.1,2.2-2.1,3.9-4.3,3.8s-3.9-2.1-3.8-4.3s2.1-3.9,4.3-3.8S163,108.8,162.8,111.1z"/>
										</g>
										<g>
											<path class="st3" d="M224,108c-0.1,2.2-2.1,3.9-4.3,3.8s-3.9-2.1-3.8-4.3c0.1-2.2,2.1-3.9,4.3-3.8S224.1,105.8,224,108z"
												/>
										</g>
										<g>
											<path class="st3" d="M300.1,36.5c-0.2,1.4-2.3,2.5-4.8,2.4s-4.4-1.3-4.3-2.8c0.2-1.4,2.3-2.5,4.8-2.4
												S300.3,35.1,300.1,36.5z"/>
										</g>
										<g>
											<path class="st3" d="M397.8,11.7c-0.2,1.4-2.3,2.5-4.8,2.4c-2.5-0.1-4.4-1.3-4.3-2.8c0.2-1.4,2.3-2.5,4.8-2.4
												C396.1,9,398,10.3,397.8,11.7z"/>
										</g>
									</g>
								</g>
							</g>
						</g>
					</g>
				</g>
			</g>
		</g>
	</g>
</g>
</svg>
