<?xml version="1.0" encoding="UTF-8"?>
<svg id="Capa_2" data-name="Capa 2" xmlns="http://www.w3.org/2000/svg" viewBox="0 0 450.19 450">
  <defs>
    <style>
      .cls-1 {
        fill: #fff;
      }
    </style>
  </defs>
  <g id="Capa_1-2" data-name="Capa 1">
    <g id="layer1">
      <path id="path1002" class="cls-1" d="M15.78,0C6.95,.16-.1,7.42,0,16.25V433.87c-.03,8.87,7.13,16.09,16,16.13H433.77c8.87,.19,16.22-6.84,16.41-15.71,.19-8.87-6.84-16.22-15.71-16.41-.23,0-.47,0-.7,0H32.16V16.25C32.26,7.38,25.16,.1,16.28,0c-.17,0-.33,0-.5,0ZM433.4,104.45c-4.16,.13-8.11,1.88-11.01,4.86l-164.84,164.84-68.99-75.89c-5.97-6.53-16.1-7.01-22.65-1.07l-96.41,88.35c-6.55,6-7,16.17-1,22.72,6,6.55,16.17,7,22.71,1h0l84.55-77.43,69.37,76.36c5.96,6.57,16.12,7.07,22.69,1.1,.18-.16,.35-.33,.52-.5l176.7-176.79c6.33-6.22,6.41-16.39,.19-22.72-3.11-3.16-7.39-4.9-11.83-4.79v-.04Z" vector-effect="none"/>
    </g>
  </g>
</svg>