<?xml version="1.0" encoding="UTF-8"?>
<svg id="Capa_2" data-name="Capa 2" xmlns="http://www.w3.org/2000/svg" viewBox="0 0 25 27">
  <defs>
    <style>
      .cls-1 {
        fill: #fff;
      }
    </style>
  </defs>
  <g id="Capa_1-2" data-name="Capa 1">
    <g>
      <path class="cls-1" d="M1.29,20.77c.34,0,.67-.16,.91-.46l7.28-8.76,2.96,3.57c.51,.61,1.32,.61,1.83,0t0,0L22.41,5.32v3.51c0,.86,.58,1.56,1.29,1.56s1.29-.7,1.29-1.56V1.56c0-.86-.58-1.56-1.29-1.56h-6.03c-.71,0-1.29,.7-1.29,1.56s.58,1.56,1.29,1.56h2.91l-7.22,8.7-2.96-3.57c-.5-.61-1.32-.61-1.83,0h0S.38,18.11,.38,18.11c-.51,.61-.51,1.59,0,2.2,.24,.29,.57,.46,.91,.46Z"/>
      <path class="cls-1" d="M23.71,23.88H1.29C.58,23.88,0,24.58,0,25.44s.58,1.56,1.29,1.56H23.71c.71,0,1.29-.7,1.29-1.56s-.58-1.56-1.29-1.56Z"/>
    </g>
  </g>
</svg>