<?xml version="1.0" encoding="UTF-8"?>
<svg id="Capa_2" data-name="Capa 2" xmlns="http://www.w3.org/2000/svg" viewBox="0 0 33.25 27">
  <defs>
    <style>
      .cls-1 {
        fill: #fff;
      }
    </style>
  </defs>
  <g id="Capa_1-2" data-name="Capa 1">
    <path class="cls-1" d="M32.48,7.65L17.09,.11c-.3-.15-.63-.15-.93,0L.77,7.65C.3,7.88,0,8.43,0,9.04c0,.62,.3,1.17,.77,1.4l6.38,3.15v8.37c0,3.01,5.08,5.04,9.83,5.04s9.83-2.02,9.83-5.04V13.25l5.68-2.81c.47-.23,.77-.78,.77-1.4,0-.62-.3-1.16-.77-1.4Zm-3.77,1.4l-12.09,5.97L4.54,9.05,16.63,3.13l12.09,5.92Zm-4.39,12.69c-.49,.67-3.3,2.24-7.35,2.24s-6.86-1.58-7.35-2.24v-6.94l6.54,3.23c.15,.07,.3,.11,.47,.11s.32-.04,.47-.11l7.23-3.57v7.28Z"/>
  </g>
</svg>