<?xml version="1.0" encoding="UTF-8"?>
<svg id="Capa_2" data-name="Capa 2" xmlns="http://www.w3.org/2000/svg" viewBox="0 0 323.44 450">
  <defs>
    <style>
      .cls-1 {
        fill: #fff;
      }
    </style>
  </defs>
  <g id="Capa_1-2" data-name="Capa 1">
    <g>
      <path class="cls-1" d="M14.06,400.78c-7.77,0-14.06-6.3-14.06-14.06V58.01C0,26.02,26.02,0,58.01,0h251.37c7.77,0,14.06,6.3,14.06,14.06V337.5c0,7.77-6.3,14.06-14.06,14.06s-14.06-6.3-14.06-14.06V28.12H58.01c-16.48,0-29.88,13.41-29.88,29.88V386.72c0,7.77-6.3,14.06-14.06,14.06Z"/>
      <path class="cls-1" d="M309.38,450H63.28c-34.89,0-63.28-28.39-63.28-63.28s28.39-63.28,63.28-63.28h246.09c7.77,0,14.06,6.3,14.06,14.06s-6.3,14.06-14.06,14.06H63.28c-19.39,0-35.16,15.77-35.16,35.16s15.77,35.16,35.16,35.16h246.09c7.77,0,14.06,6.3,14.06,14.06s-6.3,14.06-14.06,14.06Z"/>
      <path class="cls-1" d="M309.38,400.78H63.28c-7.77,0-14.06-6.3-14.06-14.06s6.3-14.06,14.06-14.06h246.09c7.77,0,14.06,6.3,14.06,14.06s-6.3,14.06-14.06,14.06Z"/>
      <path class="cls-1" d="M77.34,351.56c-7.77,0-14.06-6.3-14.06-14.06V14.06c0-7.77,6.3-14.06,14.06-14.06s14.06,6.3,14.06,14.06V337.5c0,7.77-6.3,14.06-14.06,14.06Z"/>
    </g>
  </g>
</svg>