<?xml version="1.0" encoding="UTF-8"?>
<svg id="Capa_2" data-name="Capa 2" xmlns="http://www.w3.org/2000/svg" viewBox="0 0 450.49 450.5">
  <defs>
    <style>
      .cls-1 {
        fill: #fff;
        stroke: #fff;
        stroke-miterlimit: 10;
        stroke-width: .5px;
      }
    </style>
  </defs>
  <g id="Capa_1-2" data-name="Capa 1">
    <path class="cls-1" d="M408.89,95.52c-3.42-4.84-7-9.55-10.8-14.1C356.79,31.86,294.64,.25,225.25,.25c-.13,0-.23,0-.34,0-.07,0-.13,0-.2,0-.25,0-.51,.03-.78,.03C155.07,.67,93.46,32.19,52.4,81.42c-3.78,4.55-7.38,9.26-10.8,14.1C15.6,132.21,.25,176.95,.25,225.25s15.34,93.05,41.35,129.73c3.42,4.84,7.02,9.55,10.8,14.1,41.05,49.23,102.66,80.74,171.53,81.14,.27,0,.53,.03,.78,.03,.07,0,.13,0,.19,0,.11,0,.21,0,.34,0,69.4,0,131.54-31.6,172.85-81.16,3.78-4.54,7.38-9.27,10.8-14.11,25.99-36.69,41.35-81.44,41.35-129.74,0-48.28-15.35-93.03-41.35-129.73ZM159.48,29.51c-20.68,19.95-37.87,49.11-49.71,84.1-15.87-5.93-30.15-13.06-42.46-21.13,24.14-28.67,55.89-50.75,92.17-62.97ZM56.47,106.6c13.99,9.34,30.17,17.51,48.05,24.24-7.72,28.19-12.15,59.49-12.31,92.51H18.75c.4-43.43,14.38-83.62,37.72-116.75ZM19.44,241.81H92.56c1.19,27.64,5.39,53.86,11.94,77.86-17.89,6.73-34.05,14.9-48.03,24.25-20.69-29.36-34.03-64.28-37.03-102.11Zm47.92,116.16c12.31-8.05,26.56-15.17,42.39-21.09,11.84,35,29.04,64.15,49.73,84.1-36.29-12.21-67.97-34.34-92.12-63Zm148.66,73.15c-37.88-5.19-70.58-44.04-89.12-100,26.72-8.01,56.97-12.87,89.12-13.65v113.65Zm0-132.1c-33.9,.81-65.85,6.05-94.3,14.78-5.82-22.12-9.55-46.39-10.67-71.98h104.97v57.21Zm0-75.68H110.66c.17-31.01,4.2-60.3,11.14-86.63,28.41,8.7,60.34,13.95,94.2,14.75v71.87h0Zm0-90.32c-32.12-.78-62.37-5.62-89.06-13.63,18.53-55.93,51.2-94.82,89.06-100.02v113.65Zm215.7,90.32h-74.51c-.17-32.88-4.54-64.05-12.2-92.14,18.28-6.79,34.79-15.09,49.02-24.6,23.33,33.12,37.3,73.3,37.7,116.74Zm-48.56-130.84c-12.56,8.22-27.17,15.47-43.41,21.46-11.95-35.48-29.39-64.99-50.39-85.01,36.96,12.1,69.29,34.43,93.81,63.55ZM234.48,19.52c37.47,5.79,69.74,44.6,88.07,100.16-26.45,7.84-56.35,12.58-88.07,13.36V19.52Zm0,131.97c33.46-.79,65.03-5.93,93.2-14.45,6.9,26.25,10.91,55.43,11.07,86.32h-104.27v-71.87Zm0,90.33h103.89c-1.12,25.48-4.83,49.64-10.6,71.69-28.2-8.55-59.81-13.67-93.27-14.47l-.02-57.21h0Zm0,189.17v-113.51c31.75,.78,61.65,5.52,88.13,13.36-18.36,55.57-50.67,94.36-88.13,100.15Zm54.88-9.43c21-20.01,38.48-49.51,50.43-84.99,16.21,5.98,30.8,13.22,43.34,21.43-24.52,29.11-56.81,51.45-93.77,63.57Zm104.66-77.63c-14.23-9.51-30.74-17.83-49.03-24.61,6.48-23.89,10.64-50,11.82-77.49h74.23c-3,37.82-16.3,72.74-37.02,102.1Z"/>
  </g>
</svg>