<?xml version="1.0" encoding="UTF-8"?>
<svg id="Capa_2" data-name="Capa 2" xmlns="http://www.w3.org/2000/svg" viewBox="0 0 23.51 27">
  <defs>
    <style>
      .cls-1 {
        fill: #fff;
      }
    </style>
  </defs>
  <g id="Capa_1-2" data-name="Capa 1">
    <g>
      <path class="cls-1" d="M23.44,6.85h0c-1.13-3.18-3.82-5.72-7.19-6.78-.77-.24-1.61,.16-1.86,.89-.12,.35-.1,.72,.07,1.06,.18,.34,.48,.6,.87,.72,2.5,.78,4.48,2.65,5.31,5,.21,.58,.79,.95,1.4,.95,.16,0,.31-.02,.47-.07,.38-.12,.68-.38,.86-.72,.17-.33,.2-.7,.08-1.05Z"/>
      <path class="cls-1" d="M13.91,6.72c1.17,.37,2.1,1.25,2.5,2.35,.21,.58,.79,.95,1.4,.95,.15,0,.31-.02,.46-.07,.38-.12,.69-.38,.87-.72,.17-.33,.19-.71,.07-1.06-.69-1.93-2.32-3.47-4.37-4.11-.78-.25-1.61,.15-1.87,.88-.12,.35-.1,.72,.07,1.06,.17,.35,.48,.6,.87,.72Z"/>
      <path class="cls-1" d="M6.33,1.79c-.55-.52-1.53-.52-2.08,0C1.96,3.94,.68,6.81,.65,9.86c-.03,2.98,1.13,5.82,3.29,7.99L.16,24.97c-.18,.33-.21,.71-.09,1.06,.12,.36,.39,.66,.75,.83,.2,.1,.43,.15,.66,.15H14.33c.81,0,1.48-.63,1.48-1.4,0-.22-.05-.44-.16-.63l-1.83-3.45c2.95-.19,5.7-1.37,7.79-3.35,.28-.27,.44-.62,.44-.99s-.16-.73-.44-1L6.33,1.79Zm-.07,17.91c1.26,.78,2.65,1.31,4.13,1.6l1.53,2.89H3.88s2.38-4.49,2.38-4.49Zm-.89-14.86l13.01,12.25c-1.95,1.33-4.41,1.9-6.79,1.57h0c-1.83-.24-3.51-.99-4.88-2.15-.13-.11-.25-.22-.38-.33-3.23-3.04-3.62-7.87-.96-11.33Z"/>
    </g>
  </g>
</svg>