<?xml version="1.0" encoding="UTF-8"?>
<svg id="Capa_2" data-name="Capa 2" xmlns="http://www.w3.org/2000/svg" viewBox="0 0 28.97 27">
  <defs>
    <style>
      .cls-1 {
        fill: #fff;
      }
    </style>
  </defs>
  <g id="Capa_1-2" data-name="Capa 1">
    <g>
      <path class="cls-1" d="M28.83,12.5c-.09-.22-.23-.43-.4-.58l-7.03-6.55c-.16-.14-.33-.25-.53-.32-.2-.07-.41-.09-.62-.06-.2,.03-.4,.1-.58,.22-.17,.11-.31,.26-.43,.43-.11,.17-.19,.36-.24,.56-.05,.2-.06,.41-.04,.61,.02,.21,.08,.41,.16,.59,.09,.19,.21,.36,.36,.49l5.66,5.29-5.74,5.34c-.23,.22-.39,.5-.47,.82-.08,.31-.07,.64,.02,.95,.09,.32,.27,.6,.51,.8,.25,.21,.57,.33,.89,.34h.03c.35-.02,.68-.17,.92-.41l7.12-6.56c.17-.16,.31-.36,.4-.58,.09-.22,.14-.45,.14-.7s-.05-.48-.14-.7Z"/>
      <path class="cls-1" d="M10.3,21.22c-.08-.32-.24-.61-.47-.83L3.81,14.79l5.97-5.6c.15-.14,.27-.31,.36-.49,.09-.19,.14-.38,.16-.59,.02-.21,0-.41-.04-.61-.05-.2-.13-.39-.24-.56-.12-.18-.26-.32-.43-.43-.18-.12-.37-.19-.58-.22-.21-.03-.42-.01-.62,.05-.2,.06-.37,.17-.53,.32L.54,13.47c-.17,.15-.31,.35-.4,.57C.05,14.26,0,14.49,0,14.72c0,.23,.04,.47,.12,.69,.09,.22,.22,.43,.39,.59l7.39,6.83c.17,.15,.36,.26,.57,.32l.05,.15h.36c.32,0,.64-.12,.89-.34,.24-.2,.42-.48,.51-.8,.09-.31,.1-.64,.02-.95Z"/>
      <path class="cls-1" d="M18.95,1.14c-.03-.18-.1-.35-.21-.51-.1-.15-.24-.28-.39-.39-.16-.1-.33-.18-.52-.22-.19-.04-.38-.04-.57,0-.19,.03-.37,.1-.53,.2-.17,.1-.3,.23-.41,.38-.11,.15-.19,.32-.22,.49l-5.94,24.25c-.04,.18-.05,.36-.02,.55,.03,.18,.1,.35,.21,.51s.24,.28,.4,.39c.16,.1,.33,.17,.62,.22h.24c.32-.01,.63-.12,.88-.31,.25-.19,.43-.46,.5-.76L18.94,1.68c.04-.18,.05-.37,.02-.54Z"/>
    </g>
  </g>
</svg>